<svg width="348" height="108" viewBox="0 0 348 108" fill="none" xmlns="http://www.w3.org/2000/svg">
<mask id="path-1-inside-1_212_1524" fill="white">
<path fill-rule="evenodd" clip-rule="evenodd" d="M16.3857 0C10.8629 0 6.38574 4.47715 6.38574 10V45.9675L1.19706 51.1773C-0.357355 52.7381 -0.357352 55.2619 1.19706 56.8227L6.38574 62.0325V98C6.38574 103.523 10.8629 108 16.3857 108H337.386C342.909 108 347.386 103.523 347.386 98V10C347.386 4.47715 342.909 0 337.386 0H16.3857Z"/>
</mask>
<path fill-rule="evenodd" clip-rule="evenodd" d="M16.3857 0C10.8629 0 6.38574 4.47715 6.38574 10V45.9675L1.19706 51.1773C-0.357355 52.7381 -0.357352 55.2619 1.19706 56.8227L6.38574 62.0325V98C6.38574 103.523 10.8629 108 16.3857 108H337.386C342.909 108 347.386 103.523 347.386 98V10C347.386 4.47715 342.909 0 337.386 0H16.3857Z" fill="white"/>
<path d="M6.38574 45.9675L7.80284 47.3788L8.38574 46.7935V45.9675H6.38574ZM1.19706 51.1773L-0.220036 49.766H-0.220037L1.19706 51.1773ZM1.19706 56.8227L-0.220034 58.234L1.19706 56.8227ZM6.38574 62.0325H8.38574V61.2065L7.80284 60.6212L6.38574 62.0325ZM8.38574 10C8.38574 5.58172 11.9675 2 16.3857 2V-2C9.75833 -2 4.38574 3.37258 4.38574 10H8.38574ZM8.38574 45.9675V10H4.38574V45.9675H8.38574ZM2.61415 52.5887L7.80284 47.3788L4.96865 44.5561L-0.220036 49.766L2.61415 52.5887ZM2.61416 55.4113C1.83695 54.6309 1.83695 53.3691 2.61415 52.5887L-0.220037 49.766C-2.55166 52.1072 -2.55165 55.8928 -0.220034 58.234L2.61416 55.4113ZM7.80284 60.6212L2.61416 55.4113L-0.220034 58.234L4.96865 63.4439L7.80284 60.6212ZM8.38574 98V62.0325H4.38574V98H8.38574ZM16.3857 106C11.9675 106 8.38574 102.418 8.38574 98H4.38574C4.38574 104.627 9.75831 110 16.3857 110V106ZM337.386 106H16.3857V110H337.386V106ZM345.386 98C345.386 102.418 341.804 106 337.386 106V110C344.013 110 349.386 104.627 349.386 98H345.386ZM345.386 10V98H349.386V10H345.386ZM337.386 2C341.804 2 345.386 5.58172 345.386 10H349.386C349.386 3.37259 344.013 -2 337.386 -2V2ZM16.3857 2H337.386V-2H16.3857V2Z" fill="#E6DCFF" mask="url(#path-1-inside-1_212_1524)"/>
</svg>
