<svg width="228" height="184" viewBox="0 0 228 184" fill="none" xmlns="http://www.w3.org/2000/svg">
<mask id="path-1-inside-1_1_9737" fill="white">
<path fill-rule="evenodd" clip-rule="evenodd" d="M16 0C10.4772 0 6 4.47715 6 10V84.3234L1.16581 89.1773C-0.388605 90.7381 -0.388602 93.2619 1.16581 94.8227L6 99.6766V174C6 179.523 10.4771 184 16 184H218C223.523 184 228 179.523 228 174V10C228 4.47715 223.523 0 218 0H16Z"/>
</mask>
<path fill-rule="evenodd" clip-rule="evenodd" d="M16 0C10.4772 0 6 4.47715 6 10V84.3234L1.16581 89.1773C-0.388605 90.7381 -0.388602 93.2619 1.16581 94.8227L6 99.6766V174C6 179.523 10.4771 184 16 184H218C223.523 184 228 179.523 228 174V10C228 4.47715 223.523 0 218 0H16Z" fill="white"/>
<path d="M6 84.3234L7.41709 85.7347L8 85.1494V84.3234H6ZM1.16581 89.1773L-0.251286 87.766H-0.251287L1.16581 89.1773ZM1.16581 94.8227L-0.251284 96.234H-0.251284L1.16581 94.8227ZM6 99.6766H8V98.8506L7.4171 98.2653L6 99.6766ZM8 10C8 5.58172 11.5817 2 16 2V-2C9.37258 -2 4 3.37258 4 10H8ZM8 84.3234V10H4V84.3234H8ZM2.5829 90.5887L7.41709 85.7347L4.5829 82.9121L-0.251286 87.766L2.5829 90.5887ZM2.58291 93.4113C1.8057 92.6309 1.8057 91.3691 2.5829 90.5887L-0.251287 87.766C-2.58291 90.1072 -2.5829 93.8928 -0.251284 96.234L2.58291 93.4113ZM7.4171 98.2653L2.58291 93.4113L-0.251284 96.234L4.5829 101.088L7.4171 98.2653ZM8 174V99.6766H4V174H8ZM16 182C11.5817 182 8 178.418 8 174H4C4 180.627 9.37258 186 16 186V182ZM218 182H16V186H218V182ZM226 174C226 178.418 222.418 182 218 182V186C224.627 186 230 180.627 230 174H226ZM226 10V174H230V10H226ZM218 2C222.418 2 226 5.58172 226 10H230C230 3.37259 224.627 -2 218 -2V2ZM16 2H218V-2H16V2Z" fill="#E6DCFF" mask="url(#path-1-inside-1_1_9737)"/>
</svg>
