<svg width="16" height="16" viewBox="0 0 24 24" fill="none" xmlns="http://www.w3.org/2000/svg">
<path d="M12 21C16.9706 21 21 16.9706 21 12C21 7.02944 16.9706 3 12 3C7.02944 3 3 7.02944 3 12C3 16.9706 7.02944 21 12 21Z" stroke="#747474" stroke-width="2" stroke-linecap="round" stroke-linejoin="round"/>
<path d="M9 8.86973C9.24196 8.24632 9.71954 7.72065 10.3482 7.3858C10.9768 7.05096 11.7158 6.92856 12.4345 7.04028C13.1531 7.15201 13.805 7.49064 14.2745 7.99621C14.7441 8.50178 15.0011 9.14165 15 9.8025C15 11.6681 11.9125 12.6008 11.9125 12.6008V14" stroke="#747474" stroke-width="2" stroke-linecap="round" stroke-linejoin="round"/>
<path d="M12 17H12.01" stroke="#747474" stroke-width="2" stroke-linecap="round" stroke-linejoin="round"/>
</svg>
